<?xml version="1.0" encoding="utf-8"?>
<!-- Generator: Adobe Illustrator 27.5.0, SVG Export Plug-In . SVG Version: 6.00 Build 0)  -->
<svg version="1.1" id="Layer_1" xmlns="http://www.w3.org/2000/svg" xmlns:xlink="http://www.w3.org/1999/xlink" x="0px" y="0px"
	 viewBox="0 0 5000 2916" style="enable-background:new 0 0 5000 2916;" xml:space="preserve">
<g>
	<rect x="0" style="fill-rule:evenodd;clip-rule:evenodd;fill:#003333;" width="5000" height="2916"/>
	<defs>
		<filter id="Adobe_OpacityMaskFilter" filterUnits="userSpaceOnUse" x="0" y="0" width="1263.385" height="2916">
			<feColorMatrix  type="matrix" values="1 0 0 0 0  0 1 0 0 0  0 0 1 0 0  0 0 0 1 0"/>
		</filter>
	</defs>
	<mask maskUnits="userSpaceOnUse" x="0" y="0" width="1263.385" height="2916" id="SVGID_1_">
		<g style="filter:url(#Adobe_OpacityMaskFilter);">
			
				<linearGradient id="SVGID_00000039813047822007277130000003745981950662078371_" gradientUnits="userSpaceOnUse" x1="1017.484" y1="5584.1841" x2="469.8009" y2="-273.5118">
				<stop  offset="0" style="stop-color:#FFFFFF"/>
				<stop  offset="1" style="stop-color:#000000"/>
			</linearGradient>
			<rect x="0" style="fill:url(#SVGID_00000039813047822007277130000003745981950662078371_);" width="1263.388" height="2916"/>
		</g>
	</mask>
	<path style="mask:url(#SVGID_1_);fill-rule:evenodd;clip-rule:evenodd;fill:#FFFFFF;" d="M767.513,917.958C164.3,999.606,0,0,0,0
		v2916h1020.981C579.671,2218.876,1954.242,757.327,767.513,917.958"/>
	<defs>
		
			<filter id="Adobe_OpacityMaskFilter_00000061468307939531428220000005537685108477096616_" filterUnits="userSpaceOnUse" x="0" y="0" width="1366" height="2916">
			<feColorMatrix  type="matrix" values="1 0 0 0 0  0 1 0 0 0  0 0 1 0 0  0 0 0 1 0"/>
		</filter>
	</defs>
	
		<mask maskUnits="userSpaceOnUse" x="0" y="0" width="1366" height="2916" id="SVGID_00000120557840506976352320000012724245802672657585_">
		<g style="filter:url(#Adobe_OpacityMaskFilter_00000061468307939531428220000005537685108477096616_);">
			
				<linearGradient id="SVGID_00000081618473352632507870000007217427886362461851_" gradientUnits="userSpaceOnUse" x1="1040.2428" y1="5589.3682" x2="533.0947" y2="-275.5982">
				<stop  offset="0" style="stop-color:#FFFFFF"/>
				<stop  offset="1" style="stop-color:#000000"/>
			</linearGradient>
			<rect x="0" style="fill:url(#SVGID_00000081618473352632507870000007217427886362461851_);" width="1366" height="2916"/>
		</g>
	</mask>
	
		<path style="mask:url(#SVGID_00000120557840506976352320000012724245802672657585_);fill-rule:evenodd;clip-rule:evenodd;fill:#FFFFFF;" d="
		M704.212,798.401C90.76,794.903,332.655,571.165,285.317,410.575C220.686,191.332,0,0,0,0v2916h1089.975
		C618.844,2201.585,2203.515,806.955,704.212,798.401"/>
	<defs>
		
			<filter id="Adobe_OpacityMaskFilter_00000166652170390970121210000005034462361078968216_" filterUnits="userSpaceOnUse" x="0" y="841.161" width="619.614" height="2074.839">
			<feColorMatrix  type="matrix" values="1 0 0 0 0  0 1 0 0 0  0 0 1 0 0  0 0 0 1 0"/>
		</filter>
	</defs>
	
		<mask maskUnits="userSpaceOnUse" x="0" y="841.161" width="619.614" height="2074.839" id="SVGID_00000028295012741069784580000004108488486775076542_">
		<g style="filter:url(#Adobe_OpacityMaskFilter_00000166652170390970121210000005034462361078968216_);">
			
				<linearGradient id="SVGID_00000044872888211535323160000012952877007815867814_" gradientUnits="userSpaceOnUse" x1="404.4959" y1="3407.7844" x2="280.9948" y2="1413.2412">
				<stop  offset="0" style="stop-color:#FFFFFF"/>
				<stop  offset="1" style="stop-color:#000000"/>
			</linearGradient>
			
				<rect x="0" y="841.161" style="fill:url(#SVGID_00000044872888211535323160000012952877007815867814_);" width="619.617" height="2074.839"/>
		</g>
	</mask>
	
		<path style="mask:url(#SVGID_00000028295012741069784580000004108488486775076542_);fill-rule:evenodd;clip-rule:evenodd;fill:#FFFFFF;" d="
		M486.385,2131.013c-402.14-485.223-234.58-473.557,67.024-690.507C855.016,1223.555,0,841.161,0,841.161V2916h252.076
		C252.076,2916,888.528,2616.235,486.385,2131.013"/>
	<defs>
		
			<filter id="Adobe_OpacityMaskFilter_00000049910947729624727150000006999879846033911428_" filterUnits="userSpaceOnUse" x="2101.431" y="0" width="2898.569" height="2916">
			<feColorMatrix  type="matrix" values="1 0 0 0 0  0 1 0 0 0  0 0 1 0 0  0 0 0 1 0"/>
		</filter>
	</defs>
	
		<mask maskUnits="userSpaceOnUse" x="2101.431" y="0" width="2898.569" height="2916" id="SVGID_00000026128403521388522260000006223693619365086350_">
		<g style="filter:url(#Adobe_OpacityMaskFilter_00000049910947729624727150000006999879846033911428_);">
			
				<linearGradient id="SVGID_00000091001088703403076740000002292606321647455625_" gradientUnits="userSpaceOnUse" x1="3170.292" y1="5613.3613" x2="3410.719" y2="-285.6681" gradientTransform="matrix(1 0 0 1 211.0629 0)">
				<stop  offset="0" style="stop-color:#FFFFFF"/>
				<stop  offset="1" style="stop-color:#000000"/>
			</linearGradient>
			
				<rect x="2101.43" style="fill:url(#SVGID_00000091001088703403076740000002292606321647455625_);" width="2898.57" height="2916"/>
		</g>
	</mask>
	
		<path style="mask:url(#SVGID_00000026128403521388522260000006223693619365086350_);fill-rule:evenodd;clip-rule:evenodd;fill:#FFFFFF;" d="
		M3239.104,917.958C4623.049,999.606,5000,0,5000,0v2916H2657.577C3670.069,2218.876,516.404,757.327,3239.104,917.958"/>
	<defs>
		
			<filter id="Adobe_OpacityMaskFilter_00000060740563325070204160000016870498733149335732_" filterUnits="userSpaceOnUse" x="1866.001" y="0" width="3133.999" height="2916">
			<feColorMatrix  type="matrix" values="1 0 0 0 0  0 1 0 0 0  0 0 1 0 0  0 0 0 1 0"/>
		</filter>
	</defs>
	
		<mask maskUnits="userSpaceOnUse" x="1866.001" y="0" width="3133.999" height="2916" id="SVGID_00000182519101737307503760000010669502803911439255_">
		<g style="filter:url(#Adobe_OpacityMaskFilter_00000060740563325070204160000016870498733149335732_);">
			
				<linearGradient id="SVGID_00000068647774125140437360000001375210773070470555_" gradientUnits="userSpaceOnUse" x1="3088.9241" y1="5614.3486" x2="3311.3242" y2="-286.174" gradientTransform="matrix(1 0 0 1 187.4169 0)">
				<stop  offset="0" style="stop-color:#FFFFFF"/>
				<stop  offset="1" style="stop-color:#000000"/>
			</linearGradient>
			
				<rect x="1866.001" style="fill:url(#SVGID_00000068647774125140437360000001375210773070470555_);" width="3133.999" height="2916"/>
		</g>
	</mask>
	
		<path style="mask:url(#SVGID_00000182519101737307503760000010669502803911439255_);fill-rule:evenodd;clip-rule:evenodd;fill:#FFFFFF;" d="
		M3384.333,798.401c1407.437-3.498,852.462-227.236,961.07-387.826C4493.681,191.332,5000,0,5000,0v2916H2499.283
		C3580.195,2201.585-55.5,806.955,3384.333,798.401"/>
	<defs>
		
			<filter id="Adobe_OpacityMaskFilter_00000113343650829319188960000000240893482372870579_" filterUnits="userSpaceOnUse" x="3578.423" y="841.161" width="1421.577" height="2074.839">
			<feColorMatrix  type="matrix" values="1 0 0 0 0  0 1 0 0 0  0 0 1 0 0  0 0 0 1 0"/>
		</filter>
	</defs>
	
		<mask maskUnits="userSpaceOnUse" x="3578.423" y="841.161" width="1421.577" height="2074.839" id="SVGID_00000115485639262206854620000005999861058486267264_">
		<g style="filter:url(#Adobe_OpacityMaskFilter_00000113343650829319188960000000240893482372870579_);">
			
				<linearGradient id="SVGID_00000039100091712915334880000001445796822542062753_" gradientUnits="userSpaceOnUse" x1="3888.4148" y1="3412.5244" x2="3942.397" y2="1411.8063" gradientTransform="matrix(1 0 0 1 359.4087 0)">
				<stop  offset="0" style="stop-color:#FFFFFF"/>
				<stop  offset="1" style="stop-color:#000000"/>
			</linearGradient>
			
				<rect x="3578.423" y="841.161" style="fill:url(#SVGID_00000039100091712915334880000001445796822542062753_);" width="1421.577" height="2074.839"/>
		</g>
	</mask>
	
		<path style="mask:url(#SVGID_00000115485639262206854620000005999861058486267264_);fill-rule:evenodd;clip-rule:evenodd;fill:#FFFFFF;" d="
		M3884.088,2131.013c922.633-485.223,538.203-473.557-153.769-690.507C3038.346,1223.555,5000,841.161,5000,841.161V2916h-578.333
		C4421.667,2916,2961.458,2616.235,3884.088,2131.013"/>
</g>
</svg>
